<svg xmlns="http://www.w3.org/2000/svg" width="24" height="24" viewBox="0 0 24 24" fill="none" stroke="#00aaff" stroke-width="2" stroke-linecap="round" stroke-linejoin="round">
    <path d="M22 16.92v3a2 2 0 0 1-2.18 2 19.79 19.79 0 0 1-8.63-3.07 19.5 19.5 0 0 1-6-6 19.79 19.79 0 0 1-3.07-8.63A2 2 0 0 1 4.11 2h3a2 2 0 0 1 2 1.72c.15 1.48.47 2.94.88 4.36a2 2 0 0 1-.52 2.15l-3.32 3.32a15 15 0 0 0 6 6l3.32-3.32a2 2 0 0 1 2.15-.52c1.42.41 2.88.73 4.36.88a2 2 0 0 1 1.72 2v.01z"></path>
    <line x1="16" y1="2" x2="22" y2="8"></line>
    <line x1="22" y1="2" x2="16" y2="8"></line>
</svg>